<svg width="1438" height="298" viewBox="0 0 1438 298" fill="none" xmlns="http://www.w3.org/2000/svg">
<path d="M95.192 154.388C101.546 156.509 104.584 159.417 104.324 163.117C104.056 166.826 102.598 170.258 99.9562 173.43C95.4519 178.982 90.4277 184.279 84.8665 189.299C79.3096 194.328 73.612 198.76 67.7952 202.588C61.9698 206.425 56.2126 209.401 50.5236 211.513C44.8303 213.633 39.6058 214.685 34.8415 214.685C28.7477 214.685 23.5871 212.901 19.3555 209.329C15.1196 205.756 12.3369 200.004 11.0158 192.071C9.68626 185.723 10.7474 177.194 14.1906 166.481C17.6253 155.768 22.1936 144.331 27.8868 132.166C33.5759 120.006 39.9297 107.568 46.944 94.8753C53.954 82.1781 60.4442 70.6774 66.3974 60.3604C72.3549 50.0477 77.2471 41.5148 81.0866 34.7703C84.9219 28.0257 86.4475 24.3937 85.6506 23.8614C83.7969 23.6017 81.8111 23.3335 79.6931 23.0695C77.8394 23.0695 75.7215 23.0056 73.3393 22.8693C70.9572 22.7373 68.3066 22.6692 65.4003 22.6692C61.4286 22.6692 57.3248 22.8693 53.0932 23.2653C48.8574 23.6613 44.6172 24.3256 40.3899 25.2495C36.154 26.1778 32.1824 27.4977 28.4792 29.2179C24.7675 30.9424 21.7291 33.1224 19.3469 35.7624C18.0174 37.0908 17.2929 37.9424 17.1651 38.3427C17.0287 38.7387 17.0969 39.603 17.3654 40.923C17.8938 43.8354 17.3654 46.3476 15.7759 48.4595C14.1863 50.58 12.2005 51.6317 9.81836 51.6317C9.28568 51.6317 8.22885 51.372 6.64359 50.8397C3.99298 49.788 2.0796 47.7357 0.886395 44.6912C-0.302545 41.6553 -0.302545 38.2149 0.886395 34.3785C2.0796 30.5464 4.72169 26.5823 8.82545 22.4776C12.9292 18.373 19.0785 14.7409 27.2902 11.5688C32.583 9.45685 38.272 7.99638 44.3616 7.2044C50.4469 6.41243 56.6686 6.01644 63.0224 6.01644C76.7826 6.01644 91.0754 7.07667 105.905 9.1886C120.726 11.3091 135.151 12.3608 149.184 12.3608H154.149C155.866 12.3608 157.524 12.2288 159.113 11.9648C164.935 11.4368 169.835 10.7768 173.803 9.98058C177.774 9.1886 181.081 8.39237 183.728 7.60039C186.37 6.80842 188.624 6.14844 190.478 5.61619C192.327 5.08821 193.912 4.82422 195.242 4.82422C196.831 4.82422 198.549 5.61619 200.403 7.2044C202.516 9.32485 203.381 11.6369 202.985 14.1491C202.589 16.6655 201.063 18.7093 198.421 20.2975C192.596 23.738 185.449 26.05 176.982 27.2422C168.506 28.4302 159.91 29.0263 151.174 29.0263C141.646 29.0263 132.641 28.6303 124.174 27.8383C115.698 27.0464 109.216 26.3864 104.721 25.8542C103.928 25.8542 103.459 25.9904 103.331 26.2501C103.195 26.5184 102.539 27.8384 101.345 30.2185C100.152 32.5987 98.1707 36.5671 95.388 42.1195C92.6095 47.6718 88.3055 55.6086 82.4844 65.9213C78.7726 72.5339 74.345 80.4025 69.1844 89.5273C64.0238 98.652 58.9229 108.041 53.8987 117.694C48.8659 127.351 44.1698 137.003 39.8018 146.656C35.4338 156.313 32.1227 164.906 29.8769 172.442C27.6269 179.979 26.8982 186.067 27.6951 190.692C28.4877 195.32 31.3983 197.632 36.431 197.632C38.8132 197.632 41.4553 197.104 44.3701 196.044C49.1344 194.456 54.2268 191.679 59.6558 187.711C65.0764 183.743 70.1773 179.514 74.9416 175.018C79.7059 170.526 83.9375 166.289 87.645 162.325C91.3481 158.357 93.8624 155.717 95.1877 154.393L95.192 154.388Z" fill="black"/>
<path d="M171.024 191.679C173.138 191.679 175.192 191.479 177.178 191.083C179.164 190.687 181.605 189.299 184.524 186.919C186.374 185.331 188.496 183.151 190.878 180.375C193.26 177.598 195.775 174.69 198.421 171.646C201.063 168.61 203.645 165.565 206.164 162.521C208.678 159.485 210.992 156.769 213.114 154.388C219.468 156.509 222.707 159.021 222.843 161.925C222.975 164.837 221.318 168.537 217.879 173.034C213.643 178.326 209.603 183.351 205.768 188.111C201.928 192.872 199.081 196.044 197.232 197.632C192.728 201.6 188.496 204.445 184.529 206.161C180.557 207.885 175.656 208.741 169.84 208.741C163.746 207.689 159.518 205.309 157.136 201.6C154.754 197.9 153.561 193.404 153.561 188.111C153.561 182.819 154.486 176.943 156.339 170.458C158.189 163.981 160.243 157.701 162.493 151.612C164.739 145.532 166.92 139.779 169.043 134.355C171.156 128.939 172.35 124.634 172.618 121.462C173.146 118.822 173.342 117.234 173.215 116.701C173.078 116.173 172.354 115.909 171.033 115.909C167.061 116.442 162.557 118.754 157.533 122.854C152.5 126.959 147.339 131.979 142.046 137.931C136.749 143.884 131.525 150.428 126.364 157.569C121.204 164.71 116.439 171.654 112.072 178.399C107.704 185.143 103.932 191.292 100.757 196.848C97.5826 202.401 95.3283 206.637 94.0073 209.541C91.3652 214.302 88.3183 216.682 84.875 216.682C82.4929 216.682 80.3792 215.494 78.5212 213.109C76.6718 210.729 75.8791 207.821 76.1391 204.381C76.1391 203.589 77.9928 198.369 81.696 188.712C85.4077 179.059 90.1038 167.158 95.7928 153.009C101.482 138.864 108.032 123.523 115.447 106.989C122.853 90.464 130.336 74.9906 137.879 60.5733C145.421 46.1602 152.7 33.8633 159.714 23.6783C166.724 13.5018 172.878 7.6131 178.175 6.02489C178.968 5.76516 179.892 5.62891 180.953 5.62891C183.067 5.62891 184.925 6.29314 186.51 7.6131C188.1 8.94158 189.152 10.4574 189.685 12.1734C190.213 13.8978 190.081 15.6819 189.289 17.5298C188.496 19.382 186.77 20.8382 184.128 21.8942C181.477 22.9544 178.371 25.9307 174.796 30.8188C171.22 35.7155 167.513 41.4679 163.677 48.0762C159.838 54.6888 155.998 61.7016 152.163 69.1019C148.324 76.5107 144.948 83.3234 142.038 89.5315C139.123 95.7481 136.677 100.973 134.691 105.201C132.705 109.433 131.712 111.686 131.712 111.945C127.741 120.674 124.962 126.822 123.373 130.391C121.783 133.963 121.123 135.747 121.387 135.747C121.915 135.747 123.501 133.963 126.151 130.391C128.793 126.818 132.237 122.854 136.472 118.49C140.704 114.125 145.605 110.029 151.162 106.193C156.719 102.361 162.676 100.044 169.03 99.2524C169.558 99.2524 170.151 99.1885 170.815 99.0522C171.472 98.9202 172.068 98.8521 172.601 98.8521C176.04 98.8521 179.351 100.044 182.526 102.425C188.083 106.393 190.529 111.945 189.873 119.086C189.208 126.226 187.354 134.031 184.316 142.492C181.269 150.961 178.094 159.549 174.787 168.278C171.476 177.006 170.223 184.811 171.016 191.684L171.024 191.679Z" fill="black"/>
<path d="M271.475 100.04C272.796 100.04 274.581 100.436 276.836 101.228C279.081 102.02 280.867 102.952 282.197 104.004C287.489 107.972 289.343 112.997 287.753 119.081C286.164 125.17 283.249 131.715 279.018 138.719C274.782 145.732 270.482 152.94 266.114 160.341C261.746 167.75 259.564 174.622 259.564 180.97C259.564 186.523 261.281 189.303 264.725 189.303C267.107 189.303 269.817 188.247 272.864 186.131C275.902 184.019 278.949 181.639 281.996 178.991C285.035 176.351 287.753 173.77 290.136 171.254C292.518 168.742 294.107 166.958 294.9 165.897C295.957 164.846 296.886 163.785 297.678 162.725C298.471 161.669 301.117 158.893 305.617 154.392C309.056 155.453 311.439 156.773 312.764 158.361C314.085 159.949 314.681 161.733 314.549 163.717C314.413 165.702 313.689 167.754 312.368 169.866C311.038 171.986 309.589 174.098 308 176.214C305.617 178.863 302.839 181.967 299.66 185.539C296.485 189.112 292.974 192.352 289.138 195.26C285.299 198.173 281.395 200.685 277.424 202.797C273.452 204.917 269.485 205.969 265.513 205.969C261.801 205.969 258.23 205.113 254.791 203.388C251.348 201.673 248.57 199.224 246.452 196.048C244.329 192.876 243.077 188.907 242.68 184.147C242.284 179.387 243.008 173.834 244.862 167.486C246.183 163.257 248.369 158.361 251.412 152.808C254.45 147.256 257.497 141.9 260.544 136.743C263.583 131.587 266.165 127.159 268.287 123.454C270.401 119.754 271.198 117.638 270.669 117.106C270.401 116.846 269.08 116.646 266.698 116.51C264.316 116.378 262.858 116.309 262.33 116.309C260.74 118.69 258.162 122.594 254.587 128.015C251.011 133.439 247.104 138.991 242.872 144.676C238.636 150.364 234.464 155.585 230.365 160.345C226.257 165.105 222.882 168.15 220.24 169.47C218.65 170.002 217.461 170.262 216.664 170.262C213.221 170.262 210.843 168.546 209.518 165.105C208.725 163.517 208.461 162.07 208.725 160.741C208.994 159.421 209.718 158.033 210.907 156.577C212.1 155.125 213.617 153.473 215.471 151.616C217.325 149.76 219.57 147.252 222.221 144.08C223.811 142.232 225.728 139.783 227.978 136.739C230.224 133.703 232.406 130.727 234.528 127.814C236.642 124.906 239.156 121.206 242.071 116.705C241.538 116.177 239.689 115.914 236.514 115.914C233.339 115.914 229.828 115.386 225.992 114.325C222.153 113.269 218.45 111.485 214.874 108.969C211.299 106.457 208.857 102.688 207.528 97.664C205.146 89.7315 208.32 81.2667 217.056 72.2739C222.877 66.4576 228.967 62.0975 235.321 59.1808C241.675 56.2726 247.628 54.8164 253.189 54.8164C257.685 54.8164 261.656 55.7446 265.1 57.5926C268.534 59.4448 271.185 62.1528 273.039 65.7252C274.888 69.2976 275.681 73.8579 275.421 79.4102C275.152 84.9626 273.567 91.4474 270.657 98.8477C270.388 99.6397 270.657 100.04 271.449 100.04H271.475ZM252.418 99.2437C253.739 95.5435 255.06 92.0393 256.389 88.7308C257.71 85.4267 258.375 81.7862 258.375 77.822C258.375 74.9139 258.038 73.1298 257.382 72.4655C256.717 71.8098 255.2 71.4734 252.818 71.4734C249.375 71.4734 245.604 72.5337 241.504 74.6456C237.396 76.7661 233.893 79.2059 230.983 81.9863C228.068 84.7625 226.018 87.479 224.829 90.1189C223.636 92.7674 224.096 94.8793 226.218 96.4675C228.332 97.796 231.443 98.588 235.551 98.8477C239.65 99.1159 243.422 99.2437 246.865 99.2437H252.422H252.418Z" fill="black"/>
<path d="M376.289 168.669C377.61 167.35 379.067 165.893 380.657 164.305C382.246 162.717 383.695 161.133 385.025 159.545C386.874 157.957 388.6 156.241 390.185 154.388C390.445 154.388 391.242 154.784 392.568 155.581C393.889 156.373 395.15 157.433 396.339 158.753C397.528 160.081 398.325 161.597 398.721 163.313C399.117 165.037 398.653 166.822 397.332 168.669C394.157 173.17 389.985 177.794 384.825 182.555C379.664 187.315 374.035 191.679 367.949 195.648C361.855 199.616 355.574 202.856 349.088 205.369C342.598 207.885 336.312 209.137 330.227 209.137C324.142 209.137 318.576 207.817 314.345 205.169C310.109 202.529 306.862 199.02 304.616 194.656C302.37 190.291 301.041 185.467 300.644 180.174C300.248 174.886 300.712 169.73 302.033 164.701C303.363 159.149 305.869 152.8 309.576 145.66C313.279 138.519 317.647 131.911 322.68 125.822C327.704 119.742 333.334 114.585 339.555 110.349C345.773 106.12 352.191 104 358.813 104C361.988 104 364.966 104.792 367.745 106.38C370.523 107.968 372.709 110.217 374.295 113.125C375.884 116.037 376.609 119.61 376.476 123.838C376.34 128.07 375.087 132.83 372.705 138.119C369.262 145.792 363.833 152.34 356.426 157.756C349.012 163.181 340.804 165.889 331.808 165.889C327.304 165.889 323.204 165.233 319.501 163.905C318.708 167.614 318.112 171.51 317.716 175.61C317.319 179.715 317.916 183.347 319.501 186.519C320.822 188.899 322.143 190.423 323.473 191.079C324.794 191.743 327.176 192.071 330.619 192.071C340.408 192.071 348.615 189.827 355.237 185.327C361.851 180.834 368.866 175.278 376.28 168.665L376.289 168.669ZM359.614 121.066C355.642 121.066 351.675 122.522 347.703 125.43C343.732 128.343 340.22 131.519 337.182 134.951C334.135 138.391 331.685 141.563 329.835 144.472C327.981 147.384 327.317 148.972 327.849 149.232C328.378 149.5 329.439 149.628 331.024 149.628C333.406 149.628 336.116 149.1 339.163 148.04C342.202 146.984 345.18 145.264 348.095 142.883C351.006 140.503 353.516 137.527 355.638 133.959C357.752 130.386 359.073 126.094 359.61 121.066H359.614Z" fill="black"/>
<path d="M523.198 168.67C520.547 172.378 517.573 176.406 514.266 180.771C510.955 185.135 507.315 189.24 503.348 193.067C499.376 196.904 495.14 200.144 490.645 202.788C486.14 205.437 481.376 206.757 476.352 206.757C471.055 206.757 466.359 205.109 462.255 201.796C458.147 198.492 455.437 193.664 454.116 187.315C453.323 183.883 452.986 180.639 453.123 177.594C453.255 174.558 453.583 171.842 454.116 169.461C454.644 167.081 455.109 165.233 455.505 163.909C455.901 162.589 455.965 161.925 455.705 161.925C455.445 161.925 454.644 162.785 453.323 164.505C451.993 166.23 449.748 169.065 446.573 173.034C444.451 175.682 441.74 178.923 438.434 182.755C435.122 186.591 431.483 190.291 427.516 193.864C423.544 197.436 419.509 200.476 415.405 202.988C411.297 205.505 407.398 206.757 403.69 206.757C398.393 206.757 393.825 204.377 389.994 199.616C386.163 194.856 384.505 187.715 385.029 178.195C385.562 168.414 387.808 159.153 391.779 150.424C395.751 141.695 400.711 134.095 406.669 127.615C412.626 121.138 419.176 115.978 426.323 112.141C433.469 108.309 440.351 106.389 446.969 106.389C450.672 106.389 454.18 107.053 457.491 108.373C460.798 109.701 463.776 111.813 466.423 114.721L469.597 118.294C474.093 112.742 477.34 108.773 479.326 106.393C481.312 104.013 483.626 102.821 486.277 102.821C489.98 102.821 493.027 104.013 495.409 106.393C496.202 107.453 496.662 108.245 496.798 108.773C496.93 109.305 496.998 110.229 496.998 111.549C496.998 113.402 495.737 116.906 493.227 122.062C490.709 127.219 487.866 132.971 484.691 139.32C481.517 145.668 478.47 152.085 475.559 158.561C472.644 165.046 470.927 170.53 470.399 175.027C469.866 178.199 469.934 181.243 470.599 184.151C471.255 187.064 472.248 188.784 473.578 189.308C474.106 189.576 475.031 189.704 476.356 189.704C478.998 189.704 481.252 189.176 483.106 188.115C484.427 187.324 486.213 185.935 488.467 183.951C490.713 181.967 493.095 179.587 495.614 176.811C498.128 174.035 500.706 171.126 503.357 168.082C505.999 165.046 508.253 162.329 510.107 159.949C510.899 158.893 511.56 158.033 512.092 157.369C512.621 156.713 513.145 156.117 513.682 155.585C513.942 155.057 514.21 154.661 514.475 154.393C519.239 155.453 522.414 157.369 524.003 160.145C525.593 162.921 525.324 165.766 523.211 168.674L523.198 168.67ZM447.361 123.446C445.239 123.446 443.321 123.582 441.604 123.842C439.878 124.11 438.093 124.77 436.243 125.826C427.767 129.795 421.017 135.415 415.993 142.688C410.96 149.964 407.321 157.037 405.075 163.913C402.825 170.794 401.764 176.806 401.9 181.963C402.032 187.119 402.893 189.699 404.483 189.699C406.865 189.699 410.5 187.255 415.4 182.359C420.297 177.466 425.458 171.846 430.887 165.497C436.307 159.149 441.472 152.873 446.373 146.652C451.269 140.439 454.908 136.007 457.29 133.363C455.701 129.663 454.444 127.082 453.519 125.626C452.59 124.174 450.54 123.446 447.366 123.446H447.361Z" fill="black"/>
<path d="M592.28 110.749C593.337 112.601 594.129 113.265 594.662 112.733C596.252 110.885 598.634 106.78 601.808 100.436C604.983 94.0874 608.559 86.8192 612.53 78.6184C616.502 70.4219 620.733 61.6973 625.234 52.4363C629.729 43.1796 634.166 34.7191 638.533 27.0463C642.901 19.3777 647.001 13.0292 650.841 8.0048C654.676 2.9847 658.051 0.336261 660.966 0.0722691C662.815 -0.187465 664.669 0.340519 666.523 1.66048C668.372 2.98895 669.561 4.57291 670.098 6.42085C670.358 9.06928 668.905 12.3734 665.73 16.3376C662.287 20.0462 658.584 25.5305 654.612 32.803C650.64 40.0798 646.336 48.2763 641.708 57.4011C637.072 66.5258 632.308 76.1828 627.415 86.3636C622.515 96.5485 617.422 106.397 612.13 115.918C609.215 121.21 606.769 126.103 604.783 130.595C602.797 135.096 600.479 139.988 597.833 145.272C594.121 152.945 591.479 159.425 589.893 164.71C588.304 170.002 587.771 174.895 588.304 179.387C588.564 185.999 590.418 189.303 593.861 189.303C596.243 189.303 599.085 187.915 602.396 185.139C605.703 182.363 609.01 179.127 612.321 175.418C615.628 171.718 618.735 167.882 621.654 163.913C624.565 159.945 626.947 156.773 628.8 154.393C629.06 154.393 629.989 154.661 631.579 155.185C633.168 155.717 634.754 156.513 636.343 157.565C637.933 158.625 639.053 160.081 639.718 161.929C640.374 163.781 640.046 165.897 638.725 168.278C636.343 172.246 633.364 176.478 629.793 180.975C626.218 185.475 622.378 189.64 618.279 193.472C614.171 197.308 609.871 200.417 605.375 202.797C600.871 205.177 596.375 206.369 591.875 206.369C590.021 206.369 588.564 206.237 587.507 205.973C588.035 205.973 587.571 205.773 586.118 205.377C584.66 204.981 582.875 203.925 580.757 202.205C578.635 200.489 576.589 197.909 574.603 194.468C572.618 191.036 571.36 186.272 570.832 180.187C564.738 186.8 558.525 193.08 552.171 199.033C545.817 204.985 539.327 207.957 532.718 207.957C527.685 207.957 523.053 205.973 518.821 202.005C512.736 196.452 509.489 189.508 509.092 181.175C508.696 172.842 510.281 164.254 513.857 155.389C517.432 146.532 522.593 138 529.343 129.799C536.093 121.602 543.836 114.99 552.572 109.961C559.718 105.733 567.261 103.612 575.204 103.612C582.611 103.612 588.308 105.993 592.276 110.753L592.28 110.749ZM579.572 122.254C578.243 120.934 576.525 120.269 574.412 120.269C570.968 120.269 566.336 121.994 560.515 125.426C551.779 130.454 544.765 136.671 539.472 144.071C534.175 151.48 530.472 158.621 528.354 165.493C526.232 172.374 525.576 178.258 526.368 183.146C527.161 188.043 529.279 190.487 532.722 190.487C534.312 190.487 536.029 189.959 537.883 188.899C539.204 188.899 542.182 186.519 546.815 181.758C551.443 176.998 556.275 171.446 561.308 165.097C566.332 158.748 570.9 152.272 575.004 145.66C579.103 139.051 581.417 133.895 581.954 130.186C582.214 126.754 581.422 124.106 579.572 122.254Z" fill="black"/>
<path d="M801.913 105.196C803.502 106.784 804.295 108.705 804.295 110.949C804.295 113.193 803.502 115.249 801.913 117.097C800.059 118.949 797.408 119.873 793.974 119.873C781.53 119.873 769.219 121.398 757.048 124.434C744.869 127.478 733.883 132.962 724.095 140.899C717.477 146.72 712.58 152.936 709.405 159.545C706.231 166.157 704.969 172.438 705.634 178.39C706.29 184.343 708.941 189.567 713.573 194.059C718.201 198.56 724.887 201.864 733.623 203.976C737.595 204.768 741.298 205.168 744.741 205.168C752.944 205.168 759.959 203.58 765.784 200.408C771.605 197.236 775.573 193.531 777.695 189.299C779.809 185.331 780.537 181.435 779.877 177.594C779.212 173.762 778.091 170.194 776.502 166.881C774.912 163.577 773.191 160.601 771.341 157.956C769.487 155.316 768.294 153.332 767.766 152.004C766.973 149.364 767.301 146.916 768.759 144.663C770.212 142.419 772.394 141.291 775.308 141.291C777.158 141.291 779.28 142.083 781.662 143.671C785.101 146.319 788.74 147.903 792.58 148.431C796.415 148.964 800.323 149.223 804.295 149.223C806.408 149.223 808.791 148.827 811.441 148.035C817.262 146.715 821.826 145.195 825.137 143.475C828.444 141.759 831.095 140.103 833.076 138.515C835.062 136.926 836.652 135.675 837.841 134.746C839.034 133.822 840.551 133.358 842.405 133.358C845.315 133.626 847.565 134.946 849.155 137.327C850.744 139.707 850.872 142.355 849.551 145.259C847.962 148.968 844.915 152.14 840.419 154.78C835.915 157.428 831.018 159.54 825.73 161.128C820.433 162.717 815.072 163.905 809.651 164.701C804.222 165.493 799.658 165.889 795.955 165.889C794.894 165.889 794.498 166.157 794.762 166.681C796.611 171.181 797.276 176.798 796.748 183.542C796.215 190.287 793.833 196.435 789.601 201.988C784.569 208.6 777.951 213.629 769.747 217.065C761.54 220.505 753.2 222.221 744.733 222.221C743.403 222.221 741.954 222.157 740.365 222.021C738.775 221.889 737.318 221.693 735.997 221.425C719.322 218.517 707.143 212.5 699.468 203.376C691.789 194.251 688.213 184.134 688.746 173.025C689.274 161.916 693.574 150.944 701.65 140.099C709.721 129.258 720.907 120.661 735.2 114.313C743.139 110.876 749.557 108.56 754.457 107.368C759.354 106.176 763.125 105.384 765.771 104.988C768.413 104.592 769.871 104.264 770.139 103.996C770.399 103.736 769.871 102.803 768.55 101.219C764.578 96.9912 762.06 92.0946 761.007 86.5423C759.946 80.9899 760.474 76.0976 762.597 71.8652C766.3 63.9326 772.125 57.8481 780.068 53.6157C788.008 49.3875 795.814 47.2671 803.494 47.2671C809.579 47.2671 814.872 48.7914 819.376 51.8273C823.872 54.8718 825.858 59.564 825.333 65.9126C825.065 70.9412 823.944 74.3135 821.958 76.0294C819.973 77.7539 817.919 78.6097 815.805 78.6097C814.215 78.6097 812.758 78.2138 811.437 77.4175C809.055 75.5696 807.862 73.7174 807.862 71.8652C807.862 70.013 808.121 67.5008 808.654 64.3286H803.097C796.211 64.3286 790.394 66.249 785.625 70.0811C780.861 73.9175 778.21 77.2898 777.686 80.1979C776.894 82.8464 777.486 85.4224 779.472 87.9346C781.458 90.4511 783.84 92.7631 786.618 94.8793C789.397 96.9998 792.307 98.9158 795.354 100.632C798.393 102.356 800.579 103.872 801.904 105.192L801.913 105.196Z" fill="black"/>
<path d="M1004 154.388C1007.97 155.18 1010.81 156.24 1012.54 157.56C1014.26 158.889 1015.18 160.405 1015.32 162.121C1015.45 163.845 1015.05 165.493 1014.12 167.081C1013.19 168.669 1011.94 170.126 1010.35 171.445C1005.32 175.678 1000.09 179.778 994.67 183.742C989.241 187.711 983.616 191.279 977.795 194.455C971.97 197.628 965.944 200.208 959.731 202.192C953.509 204.176 946.955 205.168 940.077 205.168C931.077 205.168 922.937 203.056 915.659 198.82C908.376 194.592 902.815 188.107 898.984 179.382C895.144 170.654 893.295 159.745 893.427 146.652C893.563 133.558 896.406 118.157 901.963 100.432C906.727 85.3543 912.944 72.0653 920.624 60.5604C928.298 49.0554 936.566 39.4027 945.438 31.5979C954.302 23.8016 963.434 17.8491 972.835 13.7444C982.227 9.64827 990.899 7.59595 998.842 7.59595C1003.07 7.59595 1007.44 7.99193 1011.95 8.78817C1016.44 9.58014 1020.74 10.9682 1024.85 12.9524C1028.95 14.9366 1032.46 17.5127 1035.37 20.6891C1038.28 23.8613 1040.27 27.7019 1041.33 32.194C1042.12 36.1624 1042.19 40.5268 1041.53 45.2872C1040.86 50.0476 1039.54 54.7483 1037.56 59.3724C1035.57 64.0051 1033.05 68.4333 1030.01 72.6614C1026.97 76.8938 1023.59 80.3342 1019.89 82.9784C1016.97 85.0989 1014.13 86.6189 1011.35 87.5387C1008.58 88.4669 1005.86 88.9267 1003.21 88.9267C998.45 88.9267 994.342 87.3385 990.907 84.1664C987.464 80.9942 985.546 76.7661 985.15 71.4735C984.754 66.1851 986.207 59.9685 989.518 52.828C992.825 45.6874 998.851 38.0189 1007.58 29.8181L1011.95 25.8497C1008.51 25.0577 1004.67 24.6575 1000.44 24.6575C989.578 24.6575 978.997 27.9659 968.671 34.5742C958.35 41.1868 949.081 49.9837 940.878 60.9564C932.671 71.9333 925.852 84.5624 920.432 98.8435C915.003 113.125 911.896 128.07 911.099 143.671C910.038 159.54 912.156 171.045 917.453 178.186C922.746 185.326 930.02 188.899 939.289 188.899C944.845 188.899 950.603 187.775 956.56 185.526C962.518 183.283 968.403 180.506 974.228 177.194C980.049 173.89 985.542 170.189 990.707 166.085C995.868 161.989 1000.3 158.088 1004.01 154.38L1004 154.388ZM1025.05 42.115C1025.31 39.2069 1025.18 37.7506 1024.65 37.7506C1023.59 37.7506 1021.88 39.011 1019.49 41.5189C1017.11 44.0353 1014.66 46.8754 1012.15 50.0475C1009.63 53.2197 1007.44 56.3323 1005.6 59.3724C1003.74 62.4168 1002.55 64.5969 1002.02 65.9169C1000.96 70.4175 1001.62 72.6614 1004.01 72.6614C1005.33 72.6614 1007.05 71.8056 1009.17 70.0811C1011.28 68.3652 1013.47 66.1127 1015.72 63.3366C1017.96 60.5604 1019.95 57.3244 1021.67 53.6157C1023.39 49.9156 1024.52 46.0792 1025.05 42.1108V42.115Z" fill="black"/>
<path d="M1081.43 190.491C1084.34 191.023 1088.04 189.039 1092.55 184.539C1097.04 180.047 1102.21 174.226 1108.03 167.081C1108.83 166.025 1109.42 165.233 1109.82 164.701C1110.21 164.173 1110.67 163.577 1111.21 162.917C1111.74 162.261 1112.46 161.269 1113.39 159.941C1114.31 158.621 1115.7 156.768 1117.56 154.388C1119.94 154.388 1122.39 155.448 1124.9 157.56C1127.42 159.681 1128.54 162.193 1128.28 165.097C1128.28 167.745 1127.29 170.39 1125.3 173.029C1123.31 175.678 1121.39 178.058 1119.54 180.17C1111.07 192.071 1103.59 199.744 1097.11 203.18C1090.62 206.62 1085.53 208.336 1081.82 208.336C1078.38 208.336 1075.4 207.544 1072.89 205.956C1070.37 204.368 1068.19 202.256 1066.34 199.607C1064.49 196.968 1063.03 194.123 1061.98 191.079C1060.91 188.043 1060.12 185.067 1059.59 182.154C1057.47 184.534 1055.03 187.115 1052.25 189.891C1049.47 192.667 1046.55 195.315 1043.51 197.823C1040.46 200.34 1037.16 202.452 1033.59 204.172C1030.01 205.896 1026.37 206.752 1022.67 206.752C1020.55 206.752 1018.96 206.62 1017.9 206.356C1010.76 204.768 1005.72 201.732 1002.81 197.232C999.903 192.739 998.386 187.451 998.25 181.362C998.118 175.282 999.042 168.801 1001.03 161.925C1003.01 155.048 1005.4 148.504 1008.17 142.287C1010.95 136.075 1013.73 130.718 1016.51 126.222C1019.29 121.73 1021.34 118.685 1022.67 117.097C1024.26 114.985 1026.37 113.925 1029.02 113.925C1030.87 113.925 1032.53 114.589 1033.99 115.909C1035.44 117.238 1036.3 119.081 1036.57 121.462C1036.83 123.05 1036.83 124.238 1036.57 125.034C1036.3 125.826 1035.38 127.414 1033.79 129.794C1032.2 132.443 1030.02 136.539 1027.24 142.091C1024.46 147.644 1021.94 153.396 1019.7 159.349C1017.45 165.301 1015.93 170.99 1015.13 176.406C1014.34 181.831 1015 185.731 1017.12 188.111C1018.18 189.44 1019.76 190.095 1021.88 190.095C1025.32 190.095 1029.29 188.111 1033.79 184.143C1038.29 180.174 1043.05 175.218 1048.09 169.265C1053.11 163.313 1058.08 156.905 1062.98 150.024C1067.87 143.147 1072.37 136.603 1076.48 130.386C1080.58 124.174 1084.02 118.949 1086.8 114.717C1089.58 110.489 1091.23 108.109 1091.76 107.576C1093.35 105.988 1095.33 105.196 1097.72 105.196C1101.15 105.196 1103.67 106.921 1105.26 110.353C1105.79 112.205 1105.79 114.121 1105.26 116.105C1104.73 118.089 1103.14 121.33 1100.49 125.826C1093.35 138.787 1087.99 148.772 1084.42 155.776C1080.84 162.789 1078.52 168.014 1077.47 171.445C1076.14 176.206 1075.88 180.438 1076.67 184.138C1077.47 187.847 1079.06 189.959 1081.44 190.487L1081.43 190.491Z" fill="black"/>
<path d="M1154.09 125.826C1162.03 118.426 1169.24 113.069 1175.73 109.761C1182.21 106.457 1188.1 104.8 1193.39 104.8C1202.39 104.8 1208.48 109.033 1211.66 117.493C1214.83 125.962 1214.3 136.535 1210.07 149.232C1206.63 158.753 1203.38 165.438 1200.34 169.265C1197.29 173.102 1195.9 175.286 1196.17 175.81C1196.7 176.078 1200.2 174.026 1206.69 169.661C1213.18 165.297 1220.79 160.209 1229.52 154.388C1232.43 155.717 1234.75 157.897 1236.47 160.933C1238.19 163.977 1237.73 166.685 1235.08 169.065C1233.49 170.394 1229.46 173.298 1222.97 177.794C1216.48 182.295 1208.54 186.919 1199.15 191.679C1189.75 196.44 1179.56 200.74 1168.58 204.572C1157.59 208.409 1146.94 210.325 1136.62 210.325C1129.47 210.325 1122.72 209.133 1116.37 206.752C1115.31 206.224 1114.25 205.96 1113.19 205.96C1112.67 205.96 1112.4 206.097 1112.4 206.356C1112.14 207.148 1111.54 208.081 1110.62 209.133C1109.69 210.193 1107.91 213.101 1105.25 217.861C1102.61 222.622 1098.9 230.03 1094.14 240.079C1089.37 250.132 1083.02 264.545 1075.08 283.323C1073.23 287.551 1071.77 290.663 1070.71 292.648C1069.66 294.632 1068.86 295.884 1068.33 296.416C1067.01 297.468 1065.42 298.004 1063.56 298.004C1061.45 298.004 1059.59 297.34 1058.01 296.02C1056.42 294.691 1055.49 292.975 1055.23 290.864C1054.97 289.535 1056.69 284.379 1060.39 275.39C1064.1 266.402 1068.93 255.425 1074.88 242.464C1080.84 229.507 1087.39 215.553 1094.54 200.608C1101.68 185.667 1108.63 171.586 1115.38 158.357C1122.13 145.136 1128.29 133.631 1133.84 123.842C1139.4 114.061 1143.51 108.109 1146.15 105.988C1148.27 104.4 1150.25 103.608 1152.11 103.608C1155.28 103.608 1157.67 105.196 1159.26 108.369C1160.31 110.489 1160.64 112.205 1160.25 113.525C1159.85 114.853 1158.33 117.234 1155.68 120.665C1151.71 126.218 1149.86 128.998 1150.13 128.998C1150.66 128.998 1151.98 127.942 1154.1 125.826H1154.09ZM1195.78 123.446C1194.98 122.654 1193.92 122.254 1192.6 122.254C1189.16 122.254 1184.99 123.842 1180.09 127.014C1175.19 130.186 1170.17 134.155 1165 138.915C1159.84 143.675 1154.74 148.9 1149.72 154.584C1144.69 160.273 1140.25 165.561 1136.42 170.453C1132.58 175.35 1129.4 179.578 1126.89 183.146C1124.37 186.719 1123.25 188.639 1123.51 188.899C1125.36 190.227 1127.55 191.079 1130.06 191.479C1132.58 191.875 1135.29 192.075 1138.2 192.075C1144.56 192.075 1148.79 191.547 1150.91 190.487C1159.65 187.051 1167.25 182.095 1173.74 175.61C1180.22 169.133 1185.32 162.389 1189.03 155.376C1192.73 148.372 1195.18 141.887 1196.37 135.939C1197.57 129.986 1197.37 125.822 1195.78 123.442V123.446Z" fill="black"/>
<path d="M1285.91 175.81C1283.52 178.982 1280.61 182.555 1277.17 186.523C1273.73 190.491 1270.02 194.128 1266.05 197.432C1262.08 200.74 1258.04 203.58 1253.94 205.96C1249.83 208.341 1245.8 209.533 1241.83 209.533C1240.24 209.533 1239.05 209.401 1238.25 209.137C1236.66 208.609 1234.81 207.885 1232.7 206.957C1230.57 206.033 1228.67 204.445 1226.94 202.196C1225.22 199.953 1223.96 196.976 1223.17 193.272C1222.38 189.572 1222.38 184.939 1223.17 179.387C1224.23 171.986 1226.34 163.786 1229.52 154.789C1232.7 145.8 1237.73 134.555 1244.61 121.066C1246.99 116.305 1248.91 112.537 1250.37 109.761C1251.82 106.985 1253.08 104.937 1254.14 103.613C1255.19 102.293 1256.06 101.432 1256.72 101.032C1257.38 100.636 1258.24 100.308 1259.31 100.04C1259.83 100.04 1260.23 99.9763 1260.49 99.84C1260.75 99.708 1261.02 99.6399 1261.29 99.6399C1263.93 99.6399 1266.18 100.7 1268.04 102.812C1269.89 104.932 1270.42 107.044 1269.63 109.161C1269.36 109.953 1267.64 113.325 1264.47 119.277C1261.29 125.23 1257.78 132.111 1253.94 139.907C1250.1 147.712 1246.73 155.845 1243.82 164.305C1240.9 172.774 1239.58 180.042 1239.85 186.123C1240.11 190.355 1241.04 192.471 1242.63 192.471C1243.68 192.471 1245.14 191.943 1246.99 190.883C1249.11 189.563 1252.09 186.983 1255.93 183.146C1259.76 179.314 1263.67 175.282 1267.64 171.045C1272.14 166.025 1277.03 160.469 1282.33 154.384C1286.03 155.176 1288.55 156.368 1289.87 157.957C1291.19 159.545 1291.86 161.329 1291.86 163.313C1291.86 165.297 1291.26 167.35 1290.07 169.461C1288.88 171.582 1287.49 173.694 1285.91 175.81ZM1282.73 70.6817C1285.11 73.0619 1285.71 76.1063 1284.52 79.8064C1283.33 83.5151 1281.4 86.155 1278.76 87.739C1277.7 88.5309 1276.38 88.9269 1274.79 88.9269C1273.99 88.9269 1272.8 88.6672 1271.22 88.1349C1270.95 88.1349 1270.55 88.0029 1270.02 87.739C1267.37 86.419 1265.79 84.5668 1265.26 82.1866C1264.73 79.8064 1264.86 77.4944 1265.65 75.2462C1266.45 73.0023 1267.84 71.0819 1269.82 69.4937C1271.81 67.9055 1273.85 67.1135 1275.98 67.1135C1278.62 67.1135 1280.87 68.3057 1282.73 70.6859L1282.73 70.6817Z" fill="black"/>
<path d="M1360.15 110.749C1361.2 112.601 1362 113.265 1362.53 112.733C1364.12 110.885 1366.51 106.78 1369.68 100.436C1372.86 94.0874 1376.43 86.8192 1380.4 78.6184C1384.37 70.4219 1388.61 61.6973 1393.11 52.4363C1397.61 43.1796 1402.04 34.7191 1406.41 27.0463C1410.78 19.3777 1414.88 13.0292 1418.72 8.0048C1422.55 2.9847 1425.93 0.336261 1428.84 0.0722691C1430.69 -0.187465 1432.55 0.340519 1434.4 1.66048C1436.25 2.98895 1437.44 4.57291 1437.97 6.42085C1438.23 9.06928 1436.78 12.3734 1433.6 16.3376C1430.16 20.0462 1426.46 25.5305 1422.48 32.803C1418.51 40.0798 1414.21 48.2763 1409.58 57.4011C1404.95 66.5258 1400.18 76.1828 1395.29 86.3636C1390.39 96.5485 1385.29 106.397 1380 115.918C1377.09 121.21 1374.64 126.103 1372.66 130.595C1370.67 135.096 1368.35 139.988 1365.7 145.272C1361.99 152.945 1359.35 159.425 1357.77 164.71C1356.18 170.002 1355.64 174.895 1356.18 179.387C1356.44 185.999 1358.29 189.303 1361.73 189.303C1364.12 189.303 1366.96 187.915 1370.27 185.139C1373.58 182.363 1376.88 179.127 1380.19 175.418C1383.5 171.718 1386.61 167.882 1389.53 163.913C1392.44 159.945 1394.82 156.773 1396.67 154.393C1396.93 154.393 1397.86 154.661 1399.45 155.185C1401.04 155.717 1402.63 156.513 1404.22 157.565C1405.8 158.625 1406.93 160.081 1407.59 161.929C1408.25 163.781 1407.92 165.897 1406.6 168.278C1404.22 172.246 1401.24 176.478 1397.67 180.975C1394.09 185.475 1390.25 189.64 1386.15 193.472C1382.04 197.308 1377.74 200.417 1373.25 202.797C1368.74 205.177 1364.25 206.369 1359.75 206.369C1357.89 206.369 1356.44 206.237 1355.38 205.973C1355.91 205.973 1355.44 205.773 1353.99 205.377C1352.53 204.981 1350.75 203.925 1348.63 202.205C1346.51 200.489 1344.46 197.909 1342.48 194.468C1340.49 191.036 1339.23 186.272 1338.7 180.187C1332.61 186.8 1326.4 193.08 1320.04 199.033C1313.69 204.985 1307.2 207.957 1300.59 207.957C1295.56 207.957 1290.93 205.973 1286.69 202.005C1280.61 196.452 1277.36 189.508 1276.96 181.175C1276.57 172.842 1278.15 164.254 1281.73 155.389C1285.3 146.532 1290.46 138 1297.22 129.799C1303.97 121.602 1311.71 114.99 1320.44 109.961C1327.59 105.733 1335.13 103.612 1343.08 103.612C1350.48 103.612 1356.18 105.993 1360.15 110.753L1360.15 110.749ZM1347.44 122.254C1346.11 120.934 1344.4 120.269 1342.28 120.269C1338.84 120.269 1334.21 121.994 1328.39 125.426C1319.65 130.454 1312.64 136.671 1307.34 144.071C1302.05 151.48 1298.34 158.621 1296.23 165.493C1294.1 172.374 1293.45 178.258 1294.24 183.146C1295.03 188.043 1297.15 190.487 1300.59 190.487C1302.18 190.487 1303.9 189.959 1305.75 188.899C1307.08 188.899 1310.05 186.519 1314.69 181.758C1319.31 176.998 1324.15 171.446 1329.18 165.097C1334.2 158.748 1338.77 152.272 1342.88 145.66C1346.98 139.051 1349.29 133.895 1349.82 130.186C1350.08 126.754 1349.29 124.106 1347.44 122.254H1347.44Z" fill="black"/>
</svg>
